<svg width="278" height="278" viewBox="0 0 278 278" fill="none" xmlns="http://www.w3.org/2000/svg">
<rect x="3.00003" width="2" height="8" fill="#FFC267"/>
<rect y="3" width="8" height="2" fill="#FFC267"/>
<rect x="33" width="2" height="8" fill="#FFC267"/>
<rect x="30" y="3" width="8" height="2" fill="#FFC267"/>
<rect x="63" width="2" height="8" fill="#FFC267"/>
<rect x="60" y="3" width="8" height="2" fill="#FFC267"/>
<rect x="93" width="2" height="8" fill="#FFC267"/>
<rect x="90" y="3" width="8" height="2" fill="#FFC267"/>
<rect x="123" width="2" height="8" fill="#FFC267"/>
<rect x="120" y="3" width="8" height="2" fill="#FFC267"/>
<rect x="153" width="2" height="8" fill="#FFC267"/>
<rect x="150" y="3" width="8" height="2" fill="#FFC267"/>
<rect x="183" width="2" height="8" fill="#FFC267"/>
<rect x="180" y="3" width="8" height="2" fill="#FFC267"/>
<rect x="213" width="2" height="8" fill="#FFC267"/>
<rect x="210" y="3" width="8" height="2" fill="#FFC267"/>
<rect x="243" width="2" height="8" fill="#FFC267"/>
<rect x="240" y="3" width="8" height="2" fill="#FFC267"/>
<rect x="273" width="2" height="8" fill="#FFC267"/>
<rect x="270" y="3" width="8" height="2" fill="#FFC267"/>
<rect x="3.00003" y="30" width="2" height="8" fill="#FFC267"/>
<rect y="33" width="8" height="2" fill="#FFC267"/>
<rect x="33" y="30" width="2" height="8" fill="#FFC267"/>
<rect x="30" y="33" width="8" height="2" fill="#FFC267"/>
<rect x="63" y="30" width="2" height="8" fill="#FFC267"/>
<rect x="60" y="33" width="8" height="2" fill="#FFC267"/>
<rect x="93" y="30" width="2" height="8" fill="#FFC267"/>
<rect x="90" y="33" width="8" height="2" fill="#FFC267"/>
<rect x="123" y="30" width="2" height="8" fill="#FFC267"/>
<rect x="120" y="33" width="8" height="2" fill="#FFC267"/>
<rect x="153" y="30" width="2" height="8" fill="#FFC267"/>
<rect x="150" y="33" width="8" height="2" fill="#FFC267"/>
<rect x="183" y="30" width="2" height="8" fill="#FFC267"/>
<rect x="180" y="33" width="8" height="2" fill="#FFC267"/>
<rect x="213" y="30" width="2" height="8" fill="#FFC267"/>
<rect x="210" y="33" width="8" height="2" fill="#FFC267"/>
<rect x="243" y="30" width="2" height="8" fill="#FFC267"/>
<rect x="240" y="33" width="8" height="2" fill="#FFC267"/>
<rect x="273" y="30" width="2" height="8" fill="#FFC267"/>
<rect x="270" y="33" width="8" height="2" fill="#FFC267"/>
<rect x="3.00003" y="60" width="2" height="8" fill="#FFC267"/>
<rect y="63" width="8" height="2" fill="#FFC267"/>
<rect x="33" y="60" width="2" height="8" fill="#FFC267"/>
<rect x="30" y="63" width="8" height="2" fill="#FFC267"/>
<rect x="63" y="60" width="2" height="8" fill="#FFC267"/>
<rect x="60" y="63" width="8" height="2" fill="#FFC267"/>
<rect x="93" y="60" width="2" height="8" fill="#FFC267"/>
<rect x="90" y="63" width="8" height="2" fill="#FFC267"/>
<rect x="123" y="60" width="2" height="8" fill="#FFC267"/>
<rect x="120" y="63" width="8" height="2" fill="#FFC267"/>
<rect x="153" y="60" width="2" height="8" fill="#FFC267"/>
<rect x="150" y="63" width="8" height="2" fill="#FFC267"/>
<rect x="183" y="60" width="2" height="8" fill="#FFC267"/>
<rect x="180" y="63" width="8" height="2" fill="#FFC267"/>
<rect x="213" y="60" width="2" height="8" fill="#FFC267"/>
<rect x="210" y="63" width="8" height="2" fill="#FFC267"/>
<rect x="243" y="60" width="2" height="8" fill="#FFC267"/>
<rect x="240" y="63" width="8" height="2" fill="#FFC267"/>
<rect x="273" y="60" width="2" height="8" fill="#FFC267"/>
<rect x="270" y="63" width="8" height="2" fill="#FFC267"/>
<rect x="3.00003" y="90" width="2" height="8" fill="#FFC267"/>
<rect y="93" width="8" height="2" fill="#FFC267"/>
<rect x="33" y="90" width="2" height="8" fill="#FFC267"/>
<rect x="30" y="93" width="8" height="2" fill="#FFC267"/>
<rect x="63" y="90" width="2" height="8" fill="#FFC267"/>
<rect x="60" y="93" width="8" height="2" fill="#FFC267"/>
<rect x="93" y="90" width="2" height="8" fill="#FFC267"/>
<rect x="90" y="93" width="8" height="2" fill="#FFC267"/>
<rect x="123" y="90" width="2" height="8" fill="#FFC267"/>
<rect x="120" y="93" width="8" height="2" fill="#FFC267"/>
<rect x="153" y="90" width="2" height="8" fill="#FFC267"/>
<rect x="150" y="93" width="8" height="2" fill="#FFC267"/>
<rect x="183" y="90" width="2" height="8" fill="#FFC267"/>
<rect x="180" y="93" width="8" height="2" fill="#FFC267"/>
<rect x="213" y="90" width="2" height="8" fill="#FFC267"/>
<rect x="210" y="93" width="8" height="2" fill="#FFC267"/>
<rect x="243" y="90" width="2" height="8" fill="#FFC267"/>
<rect x="240" y="93" width="8" height="2" fill="#FFC267"/>
<rect x="273" y="90" width="2" height="8" fill="#FFC267"/>
<rect x="270" y="93" width="8" height="2" fill="#FFC267"/>
<rect x="3.00003" y="120" width="2" height="8" fill="#FFC267"/>
<rect y="123" width="8" height="2" fill="#FFC267"/>
<rect x="33" y="120" width="2" height="8" fill="#FFC267"/>
<rect x="30" y="123" width="8" height="2" fill="#FFC267"/>
<rect x="63" y="120" width="2" height="8" fill="#FFC267"/>
<rect x="60" y="123" width="8" height="2" fill="#FFC267"/>
<rect x="93" y="120" width="2" height="8" fill="#FFC267"/>
<rect x="90" y="123" width="8" height="2" fill="#FFC267"/>
<rect x="123" y="120" width="2" height="8" fill="#FFC267"/>
<rect x="120" y="123" width="8" height="2" fill="#FFC267"/>
<rect x="153" y="120" width="2" height="8" fill="#FFC267"/>
<rect x="150" y="123" width="8" height="2" fill="#FFC267"/>
<rect x="183" y="120" width="2" height="8" fill="#FFC267"/>
<rect x="180" y="123" width="8" height="2" fill="#FFC267"/>
<rect x="213" y="120" width="2" height="8" fill="#FFC267"/>
<rect x="210" y="123" width="8" height="2" fill="#FFC267"/>
<rect x="243" y="120" width="2" height="8" fill="#FFC267"/>
<rect x="240" y="123" width="8" height="2" fill="#FFC267"/>
<rect x="273" y="120" width="2" height="8" fill="#FFC267"/>
<rect x="270" y="123" width="8" height="2" fill="#FFC267"/>
<rect x="3.00003" y="150" width="2" height="8" fill="#FFC267"/>
<rect y="153" width="8" height="2" fill="#FFC267"/>
<rect x="33" y="150" width="2" height="8" fill="#FFC267"/>
<rect x="30" y="153" width="8" height="2" fill="#FFC267"/>
<rect x="63" y="150" width="2" height="8" fill="#FFC267"/>
<rect x="60" y="153" width="8" height="2" fill="#FFC267"/>
<rect x="93" y="150" width="2" height="8" fill="#FFC267"/>
<rect x="90" y="153" width="8" height="2" fill="#FFC267"/>
<rect x="123" y="150" width="2" height="8" fill="#FFC267"/>
<rect x="120" y="153" width="8" height="2" fill="#FFC267"/>
<rect x="153" y="150" width="2" height="8" fill="#FFC267"/>
<rect x="150" y="153" width="8" height="2" fill="#FFC267"/>
<rect x="183" y="150" width="2" height="8" fill="#FFC267"/>
<rect x="180" y="153" width="8" height="2" fill="#FFC267"/>
<rect x="213" y="150" width="2" height="8" fill="#FFC267"/>
<rect x="210" y="153" width="8" height="2" fill="#FFC267"/>
<rect x="243" y="150" width="2" height="8" fill="#FFC267"/>
<rect x="240" y="153" width="8" height="2" fill="#FFC267"/>
<rect x="273" y="150" width="2" height="8" fill="#FFC267"/>
<rect x="270" y="153" width="8" height="2" fill="#FFC267"/>
<rect x="3.00003" y="180" width="2" height="8" fill="#FFC267"/>
<rect y="183" width="8" height="2" fill="#FFC267"/>
<rect x="33" y="180" width="2" height="8" fill="#FFC267"/>
<rect x="30" y="183" width="8" height="2" fill="#FFC267"/>
<rect x="63" y="180" width="2" height="8" fill="#FFC267"/>
<rect x="60" y="183" width="8" height="2" fill="#FFC267"/>
<rect x="93" y="180" width="2" height="8" fill="#FFC267"/>
<rect x="90" y="183" width="8" height="2" fill="#FFC267"/>
<rect x="123" y="180" width="2" height="8" fill="#FFC267"/>
<rect x="120" y="183" width="8" height="2" fill="#FFC267"/>
<rect x="153" y="180" width="2" height="8" fill="#FFC267"/>
<rect x="150" y="183" width="8" height="2" fill="#FFC267"/>
<rect x="183" y="180" width="2" height="8" fill="#FFC267"/>
<rect x="180" y="183" width="8" height="2" fill="#FFC267"/>
<rect x="213" y="180" width="2" height="8" fill="#FFC267"/>
<rect x="210" y="183" width="8" height="2" fill="#FFC267"/>
<rect x="243" y="180" width="2" height="8" fill="#FFC267"/>
<rect x="240" y="183" width="8" height="2" fill="#FFC267"/>
<rect x="273" y="180" width="2" height="8" fill="#FFC267"/>
<rect x="270" y="183" width="8" height="2" fill="#FFC267"/>
<rect x="3.00003" y="210" width="2" height="8" fill="#FFC267"/>
<rect y="213" width="8" height="2" fill="#FFC267"/>
<rect x="33" y="210" width="2" height="8" fill="#FFC267"/>
<rect x="30" y="213" width="8" height="2" fill="#FFC267"/>
<rect x="63" y="210" width="2" height="8" fill="#FFC267"/>
<rect x="60" y="213" width="8" height="2" fill="#FFC267"/>
<rect x="93" y="210" width="2" height="8" fill="#FFC267"/>
<rect x="90" y="213" width="8" height="2" fill="#FFC267"/>
<rect x="123" y="210" width="2" height="8" fill="#FFC267"/>
<rect x="120" y="213" width="8" height="2" fill="#FFC267"/>
<rect x="153" y="210" width="2" height="8" fill="#FFC267"/>
<rect x="150" y="213" width="8" height="2" fill="#FFC267"/>
<rect x="183" y="210" width="2" height="8" fill="#FFC267"/>
<rect x="180" y="213" width="8" height="2" fill="#FFC267"/>
<rect x="213" y="210" width="2" height="8" fill="#FFC267"/>
<rect x="210" y="213" width="8" height="2" fill="#FFC267"/>
<rect x="243" y="210" width="2" height="8" fill="#FFC267"/>
<rect x="240" y="213" width="8" height="2" fill="#FFC267"/>
<rect x="273" y="210" width="2" height="8" fill="#FFC267"/>
<rect x="270" y="213" width="8" height="2" fill="#FFC267"/>
<rect x="3.00003" y="240" width="2" height="8" fill="#FFC267"/>
<rect y="243" width="8" height="2" fill="#FFC267"/>
<rect x="33" y="240" width="2" height="8" fill="#FFC267"/>
<rect x="30" y="243" width="8" height="2" fill="#FFC267"/>
<rect x="63" y="240" width="2" height="8" fill="#FFC267"/>
<rect x="60" y="243" width="8" height="2" fill="#FFC267"/>
<rect x="93" y="240" width="2" height="8" fill="#FFC267"/>
<rect x="90" y="243" width="8" height="2" fill="#FFC267"/>
<rect x="123" y="240" width="2" height="8" fill="#FFC267"/>
<rect x="120" y="243" width="8" height="2" fill="#FFC267"/>
<rect x="153" y="240" width="2" height="8" fill="#FFC267"/>
<rect x="150" y="243" width="8" height="2" fill="#FFC267"/>
<rect x="183" y="240" width="2" height="8" fill="#FFC267"/>
<rect x="180" y="243" width="8" height="2" fill="#FFC267"/>
<rect x="213" y="240" width="2" height="8" fill="#FFC267"/>
<rect x="210" y="243" width="8" height="2" fill="#FFC267"/>
<rect x="243" y="240" width="2" height="8" fill="#FFC267"/>
<rect x="240" y="243" width="8" height="2" fill="#FFC267"/>
<rect x="273" y="240" width="2" height="8" fill="#FFC267"/>
<rect x="270" y="243" width="8" height="2" fill="#FFC267"/>
<rect x="3.00003" y="270" width="2" height="8" fill="#FFC267"/>
<rect y="273" width="8" height="2" fill="#FFC267"/>
<rect x="33" y="270" width="2" height="8" fill="#FFC267"/>
<rect x="30" y="273" width="8" height="2" fill="#FFC267"/>
<rect x="63" y="270" width="2" height="8" fill="#FFC267"/>
<rect x="60" y="273" width="8" height="2" fill="#FFC267"/>
<rect x="93" y="270" width="2" height="8" fill="#FFC267"/>
<rect x="90" y="273" width="8" height="2" fill="#FFC267"/>
<rect x="123" y="270" width="2" height="8" fill="#FFC267"/>
<rect x="120" y="273" width="8" height="2" fill="#FFC267"/>
<rect x="153" y="270" width="2" height="8" fill="#FFC267"/>
<rect x="150" y="273" width="8" height="2" fill="#FFC267"/>
<rect x="183" y="270" width="2" height="8" fill="#FFC267"/>
<rect x="180" y="273" width="8" height="2" fill="#FFC267"/>
<rect x="213" y="270" width="2" height="8" fill="#FFC267"/>
<rect x="210" y="273" width="8" height="2" fill="#FFC267"/>
<rect x="243" y="270" width="2" height="8" fill="#FFC267"/>
<rect x="240" y="273" width="8" height="2" fill="#FFC267"/>
<rect x="273" y="270" width="2" height="8" fill="#FFC267"/>
<rect x="270" y="273" width="8" height="2" fill="#FFC267"/>
</svg>
