<svg width="141" height="19" viewBox="0 0 141 19" fill="none" xmlns="http://www.w3.org/2000/svg">
<path d="M11.8802 14.227H7.25621V9.66787H11.8802V14.227ZM7.25621 17.8047H3.7534V14.227H7.25621V17.8047ZM3.7534 14.227H0.814701V11.2814H3.7534V14.227ZM42.2153 1.95201C40.8846 1.03962 39.1332 0.544006 37.1707 0.544006H32.8984V14.2213H37.1721C39.1341 14.2213 40.8156 13.7304 42.2168 12.7486C42.982 12.1913 43.5863 11.4413 43.9682 10.5746C44.3902 9.66224 44.5984 8.54006 44.5984 7.34748C44.5984 6.1549 44.3888 5.03272 43.9682 4.19074C43.5461 3.14459 42.9862 2.4434 42.2153 1.95201ZM35.4207 2.8644H36.7515C38.223 2.8644 39.4834 3.146 40.4639 3.77678C41.5148 4.40757 42.0114 5.60719 42.0114 7.35452C42.0114 9.10185 41.4487 10.3705 40.4639 11.0716C39.5538 11.6348 38.3623 11.984 36.8205 11.984H35.4207V2.8644ZM47.6102 0.339846C47.2167 0.329321 46.8363 0.48221 46.5594 0.762247C46.2355 1.01278 46.0526 1.40461 46.0684 1.81403C46.0684 2.62741 46.7272 3.2868 47.5399 3.2868C48.3526 3.2868 49.0114 2.62741 49.0114 1.81403C49.0217 1.42017 48.869 1.03954 48.5893 0.762247C48.3797 0.480646 48.0266 0.339846 47.6046 0.339846H47.6102ZM46.3385 4.54837H48.7905V14.158H46.3484V4.54837H46.3385ZM57.5574 5.39317C56.854 4.76238 56.0099 4.34139 55.1054 4.34139C53.8562 4.31385 52.6559 4.82704 51.8122 5.74939C50.9371 6.67711 50.4595 7.91069 50.4814 9.18633C50.4814 10.5197 50.9034 11.7109 51.7475 12.6233C52.5915 13.5357 53.7085 13.9566 55.0407 13.9566C55.898 13.9701 56.7355 13.6988 57.4223 13.1851V13.3949C57.4223 14.1664 57.2127 14.8029 56.7921 15.2253C56.3715 15.6477 55.8074 15.856 55.0407 15.856C53.9153 15.856 53.2189 15.4336 52.3791 14.2425L50.691 15.856L50.7614 15.9264C51.1116 16.4178 51.6715 16.912 52.3721 17.3992C53.0726 17.8864 53.9828 18.1032 55.0336 18.1032C56.5051 18.1032 57.6263 17.6808 58.4661 16.7698C59.3059 15.8589 59.7969 14.7353 59.7969 13.2625V4.54837H57.4181V5.39317H57.5588H57.5574ZM56.9285 11.0745C56.5065 11.5659 55.9438 11.7785 55.2404 11.7785C54.5371 11.7785 53.9744 11.5687 53.5523 11.0745C53.1303 10.5803 52.9221 9.94806 52.9221 9.1807C52.9221 8.41334 53.1458 7.7741 53.5678 7.28271C53.9898 6.79132 54.5525 6.57871 55.2559 6.57871C55.9593 6.57871 56.522 6.7885 56.944 7.28271C57.366 7.77692 57.5742 8.40911 57.5742 9.17647C57.5742 9.94384 57.3646 10.5845 56.944 11.0702L56.9285 11.0745ZM62.0575 4.54696H64.5095V14.1566H62.0421V4.54837L62.0575 4.54696ZM63.2336 0.339846C62.8404 0.330087 62.4605 0.482117 62.1824 0.760459C61.9043 1.0388 61.7524 1.4191 61.7621 1.81262C61.7621 2.62601 62.4209 3.28539 63.2336 3.28539C64.0463 3.28539 64.7051 2.62601 64.7051 1.81262C64.7148 1.41885 64.5627 1.03832 64.2843 0.759938C64.0059 0.481551 63.6256 0.329694 63.2322 0.339846H63.2336ZM69.7454 1.95201H67.3666V4.54837H65.9599V6.72232H67.3666V10.7211C67.3666 11.9883 67.648 12.895 68.1375 13.3864C68.6271 13.8778 69.5443 14.158 70.7302 14.158C71.1286 14.1696 71.5273 14.146 71.9217 14.0876H72.0624V11.9122L71.2183 11.9826C70.6556 11.9826 70.2336 11.9122 70.0929 11.701C69.8833 11.4912 69.8116 11.0702 69.8116 10.4338V6.79273H72.0539V4.61736H69.8186L69.7454 1.95201ZM83.336 0.544006H85.788V14.2213H83.3389V0.552454L83.336 0.544006ZM110.242 10.7929C109.883 11.2076 109.484 11.585 109.05 11.9193C108.668 12.1508 108.23 12.2722 107.784 12.2699C107.12 12.2641 106.488 11.982 106.04 11.4912C105.549 10.928 105.336 10.2987 105.336 9.45667C105.336 8.61468 105.546 7.9839 106.04 7.4221C106.471 6.9052 107.119 6.61976 107.791 6.65052C108.562 6.65052 109.402 7.14191 110.102 7.9839L111.713 6.43509C110.662 5.10171 109.331 4.47093 107.719 4.47093C106.388 4.47093 105.267 4.96232 104.287 5.9437C103.369 6.90674 102.864 8.19078 102.88 9.52143C102.88 10.9294 103.371 12.1868 104.287 13.0992C105.168 14.0584 106.417 14.5944 107.719 14.5719C109.471 14.5719 110.872 13.8004 111.852 12.398L110.242 10.7844V10.7929ZM120.12 5.94511C119.751 5.45903 119.268 5.07202 118.713 4.8187C118.077 4.52396 117.382 4.37944 116.682 4.3963C115.351 4.3963 114.23 4.8877 113.388 5.86907C112.592 6.88917 112.172 8.15262 112.197 9.44681C112.197 10.9196 112.619 12.1122 113.528 13.0245C114.436 13.9369 115.559 14.4326 117.031 14.4326C118.641 14.4326 119.973 13.8018 121.024 12.4684L121.095 12.398L119.484 10.8492C119.343 11.059 119.134 11.1998 118.921 11.4124C118.722 11.6221 118.483 11.7893 118.218 11.9038C117.853 12.1036 117.442 12.2009 117.026 12.1854C116.416 12.1942 115.821 11.9957 115.338 11.6222C114.916 11.2716 114.708 10.7774 114.635 10.1494H121.081V9.23702C121.096 8.61499 121.001 7.99515 120.799 7.40661C120.697 6.86281 120.454 6.35516 120.096 5.93384L120.12 5.94511ZM114.866 8.1951C114.973 7.77059 115.19 7.382 115.496 7.06869C115.83 6.73473 116.29 6.55649 116.762 6.5773C117.325 6.5773 117.813 6.7181 118.093 7.06869C118.374 7.35029 118.515 7.7727 118.584 8.1951H114.866ZM129.438 5.31855C128.735 4.68776 127.687 4.40616 126.426 4.40616C125.655 4.42802 124.896 4.59521 124.187 4.89896C123.556 5.24955 122.921 5.74376 122.576 6.44776L124.123 7.92054C124.754 6.86876 125.454 6.51253 126.435 6.51253C126.893 6.50037 127.341 6.64988 127.701 6.93493C128.025 7.18547 128.208 7.57729 128.192 7.98671V8.4781C127.628 8.2876 127.036 8.19243 126.44 8.1965C125.249 8.1965 124.268 8.47811 123.497 9.04131C122.726 9.60451 122.372 10.4493 122.372 11.4265C122.372 12.3388 122.653 13.04 123.282 13.6004C123.911 14.1608 124.689 14.372 125.593 14.372C126.498 14.372 127.345 14.0214 128.186 13.3864V14.158H130.568V7.9853C130.568 6.8589 130.217 5.95074 129.442 5.31995L129.438 5.31855ZM125.169 10.5099C125.45 10.3001 125.799 10.2283 126.294 10.2283C126.916 10.2492 127.53 10.3675 128.116 10.5788V11.4912C127.536 12.0019 126.786 12.2771 126.014 12.2628C125.592 12.2628 125.243 12.1924 125.029 11.9812C124.815 11.77 124.679 11.5588 124.679 11.2772C124.729 10.9632 124.907 10.6838 125.17 10.5056L125.169 10.5099ZM139.876 5.45935C139.173 4.68776 138.265 4.33294 137.074 4.33294C136.093 4.33294 135.322 4.61454 134.763 5.17775V4.61454H132.38V14.2242H134.832V8.89628C134.832 8.19228 134.972 7.5629 135.322 7.14332C135.67 6.72828 136.188 6.49577 136.729 6.51253C137.217 6.48876 137.686 6.69773 137.995 7.07573C138.324 7.52408 138.497 8.06833 138.486 8.62454V14.2354H140.927V8.61609C140.857 7.28318 140.506 6.23093 139.876 5.45935ZM80.327 5.31855C79.6236 4.68776 78.5756 4.40616 77.3152 4.40616C76.5435 4.42722 75.7827 4.59394 75.0728 4.89755C74.4426 5.24815 73.8067 5.74235 73.4621 6.44636L75.0095 7.91913C75.6397 6.86735 76.3403 6.51112 77.3208 6.51112C77.7792 6.49896 78.2274 6.64848 78.5869 6.93353C78.9108 7.18406 79.0937 7.57589 79.0778 7.9853V8.4767C78.5137 8.28619 77.9218 8.19103 77.3264 8.1951C76.1354 8.1951 75.1544 8.4767 74.3835 9.0399C73.6126 9.6031 73.2581 10.4479 73.2581 11.4251C73.2581 12.3374 73.5394 13.0386 74.1683 13.599C74.7971 14.1594 75.575 14.3706 76.4795 14.3706C77.3841 14.3706 78.231 14.02 79.0722 13.385V14.1566H81.4538V7.9853C81.4538 6.8589 81.0318 5.95074 80.3284 5.31995L80.327 5.31855ZM75.9844 10.5099C76.2657 10.3001 76.6146 10.2283 77.1098 10.2283C77.7316 10.2492 78.3463 10.3675 78.9315 10.5788V11.4912C78.3517 12.0019 77.602 12.2771 76.8298 12.2628C76.4078 12.2628 76.0589 12.1924 75.8451 11.9812C75.6313 11.77 75.4948 11.5588 75.4948 11.2772C75.5995 10.9869 75.7672 10.7234 75.9858 10.5056L75.9844 10.5099ZM94.5549 14.434C91.72 14.4351 89.1636 12.7268 88.0779 10.1056C86.9923 7.48452 87.5912 4.46693 89.5954 2.46016C91.5995 0.453394 94.6142 -0.147267 97.2334 0.938305C99.8526 2.02388 101.56 4.58186 101.56 7.41929C101.547 11.2865 98.4187 14.4185 94.5549 14.434ZM94.5549 2.79118C92.7121 2.78833 91.0492 3.89701 90.3418 5.60006C89.6344 7.30311 90.0219 9.265 91.3235 10.5706C92.625 11.8762 94.5843 12.2682 96.2874 11.5638C97.9905 10.8595 99.1018 9.19748 99.1029 7.35311C99.1055 6.1434 98.6267 4.98246 97.7721 4.12693C96.9176 3.2714 95.7579 2.79175 94.5493 2.794L94.5549 2.79118Z" fill="#2485FD"/>
</svg>
